<?xml version="1.0" standalone="no"?>
<!DOCTYPE svg PUBLIC "-//W3C//DTD SVG 20010904//EN"
 "http://www.w3.org/TR/2001/REC-SVG-20010904/DTD/svg10.dtd">
<svg version="1.0" xmlns="http://www.w3.org/2000/svg"
 width="300.000000pt" height="300.000000pt" viewBox="0 0 300.000000 300.000000"
 preserveAspectRatio="xMidYMid meet">
<metadata>
Created by potrace 1.10, written by Peter Selinger 2001-2011
</metadata>
<g transform="translate(0.000000,300.000000) scale(0.100000,-0.100000)"
fill="#000000" stroke="none">
<path d="M1408 2670 c-73 -57 -14 -170 88 -170 59 0 72 12 47 43 -14 18 -24
23 -34 16 -23 -15 -55 -10 -74 11 -18 20 -17 20 58 20 56 0 77 4 77 13 0 15
-28 57 -50 74 -24 19 -84 15 -112 -7z m100 -37 c2 -9 -10 -13 -43 -13 -42 0
-46 2 -35 16 15 18 71 15 78 -3z"/>
<path d="M1596 2615 c-4 -42 -9 -82 -12 -89 -3 -8 9 -20 29 -30 42 -19 48 -20
43 -3 -11 33 -16 98 -7 93 5 -3 7 3 4 14 -7 25 20 36 53 22 20 -10 24 -9 24 6
0 9 -7 25 -14 35 -11 14 -19 15 -39 8 -14 -6 -27 -6 -29 -2 -2 5 -12 11 -24
15 -20 6 -22 2 -28 -69z"/>
<path d="M1216 2649 c-14 -11 -26 -16 -26 -10 0 13 -10 14 -29 2 -12 -7 -9
-28 14 -122 16 -63 33 -117 39 -121 6 -4 21 -8 34 -8 20 0 22 4 16 23 -3 12
-13 34 -20 49 -20 38 -18 41 16 22 28 -17 31 -17 65 -1 19 9 35 25 36 34 4 69
-14 119 -52 138 -38 20 -62 19 -93 -6z m78 -45 c22 -22 20 -50 -6 -68 -32 -23
-45 -20 -63 14 -12 23 -13 35 -5 50 13 24 52 26 74 4z"/>
<path d="M1937 2548 l-26 -113 32 -27 31 -28 33 32 c18 17 30 34 28 37 -6 5
35 51 46 51 4 0 -2 -34 -13 -75 -17 -62 -18 -78 -7 -91 15 -18 74 -51 65 -36
-8 13 150 145 164 137 5 -3 10 -2 10 4 0 10 -48 51 -59 51 -4 0 -38 -26 -76
-57 -38 -32 -66 -50 -62 -39 4 10 10 29 13 42 3 13 10 21 15 18 6 -3 7 6 4 23
-5 19 -4 24 3 15 7 -11 11 -7 16 14 6 24 3 33 -19 51 l-26 23 -67 -54 c-37
-30 -68 -53 -70 -51 -2 2 3 23 12 47 8 23 16 36 16 28 1 -8 8 3 16 25 14 39
14 41 -11 63 -14 12 -30 22 -34 22 -4 0 -19 -51 -34 -112z m263 -159 c-46 -42
-113 -91 -87 -63 17 17 132 113 137 113 3 0 -20 -23 -50 -50z"/>
<path d="M1001 2576 c-28 -16 -50 -52 -51 -85 0 -31 70 -101 101 -101 32 0 75
24 71 39 -1 7 2 10 8 6 5 -3 14 4 19 17 22 59 -30 138 -91 138 -18 -1 -44 -7
-57 -14z m79 -46 c24 -24 25 -43 4 -64 -22 -22 -50 -20 -68 6 -20 28 -20 43 0
62 21 21 40 20 64 -4z"/>
<path d="M820 2545 c-10 -12 0 -31 53 -108 69 -98 84 -114 105 -111 6 1 17 2
23 3 6 0 -2 18 -19 39 -16 20 -52 72 -81 115 -28 42 -55 77 -60 77 -5 0 -14
-7 -21 -15z"/>
<path d="M1716 2534 c-19 -18 -12 -38 21 -59 43 -29 62 -7 35 41 -16 29 -38
36 -56 18z"/>
<path d="M751 2406 c-28 -16 -50 -52 -51 -85 0 -14 15 -38 39 -62 49 -50 86
-52 136 -8 36 32 44 56 23 77 -17 17 -48 15 -48 -2 0 -23 -29 -46 -58 -46 -27
0 -26 1 16 41 23 22 46 37 51 34 5 -3 12 -1 15 4 9 14 -52 61 -77 61 -12 -1
-33 -7 -46 -14z m59 -34 c0 -5 -13 -21 -30 -37 -26 -25 -30 -26 -36 -11 -8 21
22 56 48 56 10 0 18 -4 18 -8z"/>
<path d="M2209 2321 c-44 -44 -40 -83 15 -137 45 -45 66 -55 66 -30 0 25 -12
46 -26 46 -17 0 -47 57 -38 72 5 7 25 -9 56 -43 43 -48 49 -52 59 -36 5 9 14
15 20 12 5 -4 6 2 2 11 -4 12 -3 15 5 10 8 -5 12 2 12 20 0 17 -13 39 -39 65
-49 50 -89 52 -132 10z m101 -31 c22 -22 25 -36 10 -45 -10 -6 -59 42 -60 58
0 14 30 7 50 -13z"/>
<path d="M633 2290 c-10 -15 -6 -27 22 -71 19 -30 30 -55 25 -57 -4 -2 -33 3
-64 11 -51 14 -56 13 -71 -3 -12 -13 -13 -20 -5 -25 15 -9 213 -64 206 -58 -3
3 -1 14 5 25 8 15 0 35 -41 103 -28 46 -54 87 -59 89 -4 3 -12 -4 -18 -14z"/>
<path d="M2383 2182 c-56 -32 -103 -62 -103 -68 0 -6 9 -19 20 -29 11 -10 20
-26 20 -35 0 -21 57 -80 79 -81 39 -3 91 16 91 33 0 5 -12 1 -27 -8 l-28 -16
25 20 c13 11 29 20 35 19 5 -1 11 14 13 34 3 30 -3 43 -30 72 l-34 36 24 10
c17 9 21 8 16 -1 -5 -8 -2 -9 10 -5 10 4 22 7 27 7 15 0 10 13 -14 42 l-22 26
-102 -56z m47 -70 c31 -25 21 -69 -17 -78 -20 -5 -31 -2 -45 16 -24 29 -23 46
4 64 28 20 31 20 58 -2z"/>
<path d="M500 2072 c-54 -54 -28 -143 48 -170 72 -25 153 72 109 132 -15 20
-49 12 -40 -10 8 -21 -24 -64 -47 -64 -20 0 -19 2 5 50 14 28 30 48 35 45 6
-3 10 -3 10 2 -1 20 -19 34 -53 40 -31 5 -40 1 -67 -25z m60 -21 c0 -22 -32
-81 -40 -76 -17 10 -11 63 8 74 21 13 32 14 32 2z"/>
<path d="M402 1891 c-37 -24 -46 -42 -66 -128 l-14 -61 27 -11 c14 -6 62 -18
106 -27 44 -9 88 -20 98 -26 25 -13 28 -8 17 33 -12 42 -13 59 -1 40 7 -10 11
0 17 34 5 39 3 56 -12 84 -39 71 -114 98 -172 62z m106 -57 c17 -11 22 -25 22
-57 0 -65 -5 -67 -83 -50 -55 12 -67 19 -67 35 0 12 4 17 12 12 8 -5 9 0 5 17
-13 50 60 79 111 43z"/>
<path d="M2510 1878 c-52 -11 -96 -21 -98 -23 -2 -1 4 -35 13 -74 22 -94 52
-126 127 -134 96 -10 136 46 114 158 -22 108 -11 103 -156 73z m100 -64 c16
-40 12 -63 -15 -89 -27 -28 -76 -33 -94 -11 -7 8 -16 27 -20 43 -5 15 -12 37
-17 47 -6 17 -4 18 29 12 40 -8 90 2 81 15 -3 5 2 9 11 9 8 0 20 -12 25 -26z"/>
<path d="M2502 1614 c-38 -15 -52 -41 -52 -92 0 -48 33 -97 49 -73 6 9 6 22 0
32 -14 27 -11 75 6 89 13 11 15 4 15 -58 0 -64 2 -70 23 -76 34 -9 49 -7 41 6
-5 7 -3 8 5 4 22 -14 51 24 51 65 0 28 -8 47 -30 72 -35 40 -66 49 -108 31z
m84 -98 c-3 -14 -13 -26 -21 -26 -11 0 -15 12 -15 47 l0 47 21 -21 c16 -16 20
-28 15 -47z"/>
<path d="M407 1525 c-54 -7 -100 -15 -102 -17 -2 -2 -2 -14 1 -26 7 -24 46
-42 52 -23 2 6 10 11 17 11 10 0 12 -9 8 -33 -4 -28 0 -40 28 -71 28 -33 37
-37 63 -32 17 4 44 16 60 27 16 12 25 15 21 8 -8 -12 -6 -12 8 0 23 18 21 57
-4 92 -15 22 -17 27 -5 23 20 -8 21 14 2 39 -15 19 -14 19 -149 2z m94 -55
c22 -13 25 -52 5 -69 -25 -21 -69 -9 -80 21 -16 47 26 74 75 48z"/>
<path d="M2515 1393 c-43 -8 -80 -15 -81 -16 -1 -1 -5 -13 -8 -27 -5 -22 4
-32 79 -88 47 -35 90 -60 94 -57 20 12 -4 47 -60 89 -59 43 -59 44 -32 49 16
3 49 3 76 0 43 -5 47 -4 47 15 0 30 -10 52 -24 51 -6 -1 -47 -8 -91 -16z"/>
<path d="M510 1315 c-30 -13 -63 -34 -74 -48 -18 -25 -18 -26 3 -69 11 -25 21
-54 21 -65 0 -20 14 -32 35 -29 6 0 9 4 8 8 -3 9 98 42 125 40 27 -2 27 5 3
37 -19 24 -19 24 -63 8 -58 -23 -72 -21 -87 7 -15 27 -6 50 16 42 8 -4 11 -2
7 5 -4 8 1 9 16 4 14 -4 20 -3 16 3 -3 6 11 9 39 7 l45 -3 -17 30 c-27 45 -34
47 -93 23z"/>
<path d="M2413 1230 c-13 -5 -32 -24 -43 -42 -20 -34 -27 -88 -11 -88 5 0 16
-3 24 -6 11 -4 13 1 10 20 -6 30 20 76 42 76 20 0 19 -2 -10 -60 -14 -27 -25
-54 -25 -60 0 -6 15 -17 33 -26 40 -19 78 -7 103 31 28 42 22 82 -17 120 -38
38 -73 49 -106 35z m82 -71 c12 -18 -4 -57 -26 -64 -30 -10 -32 -2 -13 39 18
37 28 44 39 25z"/>
<path d="M618 1113 c-2 -10 7 -26 19 -36 15 -12 23 -29 23 -48 0 -37 -14 -37
-29 -1 -6 15 -23 41 -36 57 l-25 30 -25 -28 c-37 -42 -33 -81 14 -128 27 -27
47 -39 68 -39 31 0 76 26 68 40 -8 12 6 41 16 34 19 -12 8 44 -16 77 -42 57
-71 73 -77 42z m2 -127 c0 -4 -9 -6 -20 -6 -24 0 -46 41 -36 66 6 15 11 12 31
-19 14 -20 25 -38 25 -41z"/>
<path d="M2299 1059 c-6 -12 -8 -23 -5 -27 4 -3 57 -39 119 -78 88 -57 114
-70 120 -59 7 14 -18 65 -32 65 -4 0 -48 27 -99 60 -88 57 -92 58 -103 39z"/>
<path d="M724 975 c-4 -8 -1 -22 6 -30 11 -13 8 -21 -15 -45 -32 -34 -50 -38
-59 -13 -6 15 -8 15 -23 0 -13 -13 -14 -19 -3 -31 10 -13 10 -19 1 -30 -9 -11
-10 -20 -1 -35 15 -29 48 -29 41 -1 -2 11 2 10 18 -4 17 -15 24 -17 33 -8 10
10 10 17 1 31 -12 19 -5 29 51 71 16 12 18 13 11 1 -5 -10 -4 -12 3 -7 27 16
1 85 -40 107 -14 7 -20 6 -24 -6z"/>
<path d="M2241 966 c-30 -17 -50 -52 -51 -90 0 -20 12 -40 40 -68 35 -35 44
-40 73 -34 74 14 110 102 64 157 -40 48 -82 60 -126 35z m71 -53 c24 -22 23
-48 -4 -67 -24 -17 -51 -8 -68 24 -25 46 32 80 72 43z"/>
<path d="M2077 896 c-17 -13 -16 -15 8 -44 14 -16 25 -32 25 -35 0 -2 -13 -7
-30 -10 -40 -8 -64 -47 -56 -91 9 -48 67 -98 109 -94 18 2 31 8 30 15 -1 6 4
17 12 23 8 7 15 19 15 27 0 10 5 11 18 4 18 -9 50 -10 55 0 2 6 -156 218 -163
218 -3 0 -13 -6 -23 -13z m73 -136 c11 -11 20 -23 20 -28 0 -18 -33 -52 -50
-52 -21 0 -50 35 -50 60 0 41 48 52 80 20z"/>
<path d="M787 831 c-43 -56 -47 -93 -14 -122 91 -81 109 -93 118 -78 13 20 11
31 -3 23 -8 -5 -7 0 2 12 46 60 64 79 77 76 7 -2 13 2 13 7 0 11 -39 51 -49
51 -3 0 -17 -16 -30 -36 -28 -40 -53 -56 -75 -48 -20 8 -31 43 -17 57 6 6 11
7 11 2 0 -5 13 4 29 19 16 15 32 28 35 27 16 -3 14 1 -14 29 -17 17 -34 30
-38 30 -4 0 -25 -22 -45 -49z"/>
<path d="M960 705 c-46 -49 -22 -122 52 -161 41 -21 66 -17 99 15 42 43 40 83
-10 132 -49 49 -103 54 -141 14z m106 -36 c17 -19 17 -23 3 -47 -20 -37 -53
-40 -75 -8 -15 24 -15 28 0 51 20 30 47 32 72 4z"/>
<path d="M1863 686 c-27 -24 -27 -26 -10 -43 16 -17 18 -16 33 5 10 14 26 22
44 22 49 0 42 -17 -15 -40 -31 -12 -58 -27 -61 -32 -4 -5 9 -25 27 -44 24 -25
41 -34 66 -34 70 0 118 63 90 116 -29 56 -55 74 -102 74 -32 0 -51 -6 -72 -24z
m127 -65 c0 -5 -8 -19 -18 -31 -14 -18 -25 -22 -45 -16 -36 9 -34 18 11 38 44
19 52 21 52 9z"/>
<path d="M1215 647 c-2 -7 -9 -29 -15 -49 -13 -44 -33 -62 -59 -55 -12 3 -22
-1 -25 -10 -10 -26 -7 -31 27 -38 17 -4 42 -13 55 -21 29 -19 45 -8 39 26 -7
31 2 72 13 65 14 -8 31 56 20 70 -15 18 -51 26 -55 12z"/>
<path d="M1756 651 c-3 -4 -1 -23 4 -42 16 -56 13 -90 -10 -96 -24 -6 -26 -35
-5 -53 22 -19 45 -6 37 22 -5 22 -5 22 12 6 10 -10 23 -18 31 -18 7 0 20 -2
28 -6 11 -4 8 13 -11 73 -14 43 -30 88 -35 101 -10 22 -41 30 -51 13z"/>
<path d="M1625 613 c-9 -25 51 -79 70 -63 15 13 10 35 -13 63 -19 22 -48 22
-57 0z"/>
<path d="M1400 579 l0 -42 -60 6 c-54 6 -60 5 -60 -11 0 -25 42 -46 74 -38 24
6 26 4 26 -29 0 -30 -3 -35 -17 -31 -10 2 -37 7 -59 11 -34 5 -43 3 -48 -11
-9 -24 5 -31 88 -39 43 -4 78 -13 89 -23 17 -15 18 -12 13 68 -2 45 -1 78 4
71 4 -8 9 4 13 30 7 49 -8 79 -40 79 -20 0 -23 -5 -23 -41z"/>
</g>
</svg>
