<svg version="1.1" id="Layer_1" xmlns="http://www.w3.org/2000/svg" xmlns:xlink="http://www.w3.org/1999/xlink" x="0px" y="0px"
	 width="100%" viewBox="0 0 1024 1024" enable-background="new 0 0 1024 1024" xml:space="preserve">
<path fill="#000000" opacity="1.000000" stroke="none" 
	d="
M705.692383,194.807037 
	C707.534851,187.337646 709.305786,180.273834 711.411011,171.876755 
	C698.832947,182.209244 687.245178,191.605698 675.801086,201.173965 
	C668.657104,207.146957 668.714478,207.325638 661.130615,202.471466 
	C648.808533,194.584412 650.939819,198.133392 653.958862,185.096695 
	C659.022156,163.233109 664.528198,141.471848 669.887756,119.677368 
	C670.272461,118.113129 670.388123,116.364662 672.286743,114.814491 
	C677.321594,117.174599 682.165161,120.297066 686.859619,123.624214 
	C689.145203,125.244118 687.861328,127.588295 687.353516,129.615341 
	C683.556458,144.772903 679.712402,159.918716 675.899109,175.072235 
	C675.584106,176.323944 675.387207,177.605377 674.934509,179.884918 
	C683.886719,172.525894 692.082214,165.782928 700.284607,159.048325 
	C705.690125,154.610107 711.165833,150.254684 716.485291,145.715866 
	C718.468262,144.023941 720.037842,144.045975 722.255005,145.343582 
	C734.477661,152.496933 734.475159,152.434479 731.071594,165.997391 
	C727.955017,178.417007 724.927795,190.859055 721.844727,203.287125 
	C721.567078,204.406326 721.011719,205.490677 721.780334,206.712036 
	C723.899475,206.956635 724.957153,205.221329 726.282715,204.120911 
	C738.069702,194.336243 749.860901,184.555389 761.534546,174.636536 
	C763.779541,172.729050 765.617432,172.198578 768.121155,173.989243 
	C771.866577,176.668045 776.314575,178.342316 780.139160,182.319534 
	C775.486389,186.302322 771.045410,190.170456 766.533386,193.953949 
	C750.844788,207.109436 735.081909,220.177200 719.474731,233.428452 
	C716.759155,235.734131 714.749512,235.992294 711.617981,234.088943 
	C698.212708,225.941132 698.149048,226.048508 701.865662,210.740448 
	C703.122009,205.565613 704.369385,200.388596 705.692383,194.807037 
z"/>
<path fill="#000000" opacity="1.000000" stroke="none" 
	d="
M164.146347,456.030151 
	C147.451157,452.559662 131.182236,449.098206 114.858047,445.920654 
	C110.832932,445.137146 109.721664,443.572388 110.655800,439.549805 
	C113.211075,428.546234 115.235916,417.419312 117.802834,406.418701 
	C122.431686,386.581573 135.565765,373.880859 154.166992,372.599976 
	C176.720840,371.046936 196.386490,385.992371 197.332016,410.433533 
	C197.880722,424.617279 193.367035,438.024170 190.741791,451.708282 
	C188.932999,461.136505 188.683121,461.116547 179.188431,459.233246 
	C174.297852,458.263245 169.430222,457.177460 164.146347,456.030151 
M136.277466,403.861633 
	C132.360260,411.533966 131.646378,419.984100 129.917160,428.110443 
	C130.713669,428.618439 131.092087,429.023560 131.537369,429.120026 
	C145.655243,432.178680 159.784775,435.183624 173.898270,438.262177 
	C176.478287,438.824982 177.141861,437.246216 177.558502,435.343933 
	C178.587830,430.644135 179.720078,425.957733 180.505203,421.215332 
	C182.605927,408.526184 177.460022,398.639771 166.721664,394.371613 
	C154.412415,389.479126 143.853378,392.586609 136.277466,403.861633 
z"/>
<path fill="#000000" opacity="1.000000" stroke="none" 
	d="
M892.110352,375.966919 
	C900.978760,374.381958 901.291504,374.327393 902.753174,382.704132 
	C905.005859,395.613129 909.088135,408.253937 909.232849,421.476166 
	C909.467651,442.928772 896.068787,459.024353 875.721924,462.175171 
	C855.463562,465.312286 837.844727,454.517365 831.384521,434.271118 
	C827.191467,421.130096 825.767639,407.300873 822.684937,393.869720 
	C821.760742,389.843231 824.612488,389.636566 827.239136,389.104736 
	C848.724487,384.754395 870.209167,380.401093 892.110352,375.966919 
M892.647949,422.028778 
	C893.239197,415.093384 890.905884,408.558075 889.975220,401.830109 
	C889.365601,397.422150 887.225708,396.836426 883.441406,397.638397 
	C872.706238,399.913269 861.931030,401.999573 851.169006,404.147247 
	C841.766724,406.023651 841.737305,406.020874 843.396729,415.455048 
	C843.856567,418.069031 844.476257,420.659454 845.124634,423.234955 
	C848.393860,436.221741 856.293396,443.019440 867.947998,442.924500 
	C881.585571,442.813416 889.337158,436.510834 892.647949,422.028778 
z"/>
<path fill="#000000" opacity="1.000000" stroke="none" 
	d="
M838.620483,265.600159 
	C850.346802,258.652771 850.202454,258.739807 856.995178,270.003143 
	C859.285400,273.800629 859.288025,275.899109 855.016052,278.080688 
	C848.553162,281.381104 842.402344,285.292664 835.958618,289.037689 
	C853.230652,302.099854 858.152283,316.309021 850.778015,330.975861 
	C844.096680,344.264404 825.959900,352.484222 812.284668,348.421539 
	C797.972656,344.169678 788.596008,330.228271 790.302368,315.106232 
	C784.173645,318.403503 783.206848,313.174561 781.169006,309.775360 
	C776.315125,301.679138 776.339172,301.641785 784.266357,297.046875 
	C802.270203,286.611145 820.284668,276.193848 838.620483,265.600159 
M832.855469,304.704742 
	C824.365845,296.698853 810.932129,298.906403 805.503357,309.199463 
	C800.544128,318.602295 807.675964,330.679596 818.304443,330.785980 
	C825.194336,330.854950 830.486633,327.587250 834.200500,322.070496 
	C837.996399,316.431641 836.857727,310.710144 832.855469,304.704742 
z"/>
<path fill="#000000" opacity="1.000000" stroke="none" 
	d="
M161.236069,501.050110 
	C169.125656,500.186768 176.588043,499.541382 183.994354,498.497986 
	C187.345093,498.025909 188.588638,499.418945 188.967087,502.333221 
	C189.309158,504.967194 189.469788,507.632782 189.959244,510.237671 
	C190.658539,513.959229 190.184601,516.697510 184.344330,516.291443 
	C192.026550,523.292969 194.372482,531.414551 193.934708,540.322815 
	C193.591354,547.309631 191.096878,553.618896 186.146164,558.777283 
	C175.386276,569.988586 156.739502,572.525574 143.927673,564.519104 
	C131.185806,556.556335 127.054375,541.369263 133.184860,524.092773 
	C126.263680,523.887085 119.613976,525.142395 112.945145,525.956482 
	C105.939156,526.811829 105.331306,526.409729 104.708420,519.256348 
	C103.701042,507.687378 103.723373,507.892456 115.242012,506.638458 
	C130.443939,504.983429 145.606522,502.966858 161.236069,501.050110 
M151.295547,547.363831 
	C160.703735,552.470520 171.874832,549.906250 176.034576,541.685181 
	C179.544357,534.748657 177.425308,526.304016 171.174683,522.317749 
	C164.212952,517.877991 153.004181,519.640198 148.019547,525.958069 
	C143.152649,532.126831 144.254028,540.722534 151.295547,547.363831 
z"/>
<path fill="#000000" opacity="1.000000" stroke="none" 
	d="
M717.576660,745.329224 
	C717.973633,741.232971 714.630798,739.261719 712.812927,736.455322 
	C710.646667,733.111084 708.174072,729.948792 705.649780,726.858337 
	C703.693176,724.463074 704.275024,722.935913 706.524719,721.103943 
	C717.784302,711.935242 717.784241,711.860657 726.325134,723.211487 
	C739.531006,740.762085 752.599915,758.416565 765.923645,775.876831 
	C768.395935,779.116638 768.019348,780.948547 764.769043,782.956299 
	C762.513000,784.349731 760.363586,785.972229 758.375305,787.728760 
	C755.775330,790.025757 753.499878,790.777344 751.274780,786.004211 
	C747.560669,797.210083 740.629456,804.011536 730.510315,807.550415 
	C724.149231,809.774963 717.838135,809.815857 711.481628,807.459961 
	C697.726135,802.362000 687.177979,786.155090 688.861389,772.585693 
	C690.621643,758.397339 702.683838,746.904175 717.576660,745.329224 
M737.589783,782.776794 
	C739.063538,780.008606 739.166687,777.029419 738.777222,774.031677 
	C737.636597,765.253357 729.121643,758.381409 720.507080,759.214172 
	C712.718811,759.966980 706.868103,766.831909 707.339905,774.663696 
	C707.758301,781.609985 713.879272,789.010376 720.823792,790.965942 
	C726.852417,792.663757 732.522400,790.069336 737.589783,782.776794 
z"/>
<path fill="#000000" opacity="1.000000" stroke="none" 
	d="
M457.504639,166.446686 
	C447.633636,176.498901 436.350220,179.683243 422.554871,174.806290 
	C424.362640,182.289413 425.833313,189.232086 427.764984,196.044037 
	C428.877258,199.966461 427.471069,201.407181 423.860504,202.340027 
	C410.521606,205.786316 410.739655,205.820847 407.549988,192.460175 
	C402.649841,171.934540 397.430237,151.485291 392.382385,130.994720 
	C390.537201,123.504578 390.584564,123.494164 398.082489,121.677383 
	C399.375366,121.364113 400.662872,121.028618 401.955933,120.716141 
	C406.982605,119.501411 406.983063,119.503326 410.010193,123.582718 
	C422.889191,109.620361 443.354401,110.706459 453.998413,120.580605 
	C464.242523,130.083786 470.820404,151.195282 457.504639,166.446686 
M442.003784,157.484573 
	C442.842499,156.253372 443.929718,155.123138 444.477997,153.773911 
	C447.216797,147.034195 446.170990,140.582962 441.829041,134.981949 
	C438.364929,130.513321 433.483765,128.467834 427.677887,129.715790 
	C420.971008,131.157455 416.215576,135.713165 415.552216,141.980347 
	C414.790802,149.173447 416.705963,155.598907 422.984009,159.902710 
	C428.203979,163.481155 435.290680,162.613754 442.003784,157.484573 
z"/>
<path fill="#000000" opacity="1.000000" stroke="none" 
	d="
M471.725037,866.896606 
	C473.658051,855.313660 473.530304,856.096375 463.213348,854.974060 
	C455.933716,854.182129 448.692871,853.034058 441.413391,852.240295 
	C437.941681,851.861633 436.436554,850.749939 437.093018,846.833862 
	C439.366089,833.273499 437.121521,835.881042 450.521881,837.306641 
	C458.285889,838.132568 466.018463,839.253296 473.768127,840.217529 
	C474.064728,840.254395 474.392365,840.042053 475.227539,839.785339 
	C476.341278,832.014343 477.638092,824.030212 478.562897,816.003235 
	C478.946136,812.676697 480.313782,811.697754 483.452148,812.244385 
	C487.055420,812.871948 490.692932,813.326721 494.329498,813.731812 
	C497.243408,814.056458 498.239502,815.324280 497.820892,818.388611 
	C494.605408,841.924744 491.467468,865.472229 488.496765,889.040344 
	C488.026154,892.773987 487.091644,894.152588 482.921692,893.573181 
	C465.949280,891.214722 448.927185,889.204834 431.906860,887.207275 
	C428.473724,886.804321 427.460419,885.256042 427.700958,881.943787 
	C428.525208,870.592590 428.728882,870.383850 439.955536,871.940430 
	C447.363770,872.967590 454.787598,873.881714 462.202484,874.861694 
	C470.731659,875.988831 470.730682,875.996155 471.725037,866.896606 
z"/>
<path fill="#000000" opacity="1.000000" stroke="none" 
	d="
M177.678711,678.019043 
	C175.376495,664.920471 182.844177,650.978760 194.584854,645.433899 
	C197.473495,644.069641 198.783813,645.060059 200.176636,647.379211 
	C206.347549,657.654297 212.590546,667.886047 218.838364,678.114685 
	C219.677582,679.488647 220.166611,681.196045 222.291290,682.005432 
	C226.413345,678.152405 226.502945,673.273804 225.108185,668.369995 
	C223.410370,662.400818 220.001968,657.382812 214.137207,654.835388 
	C210.424637,653.222839 209.775726,651.221130 210.893860,647.488586 
	C213.837219,637.663330 215.085739,637.075989 223.918579,642.497375 
	C235.930130,649.869812 244.658264,668.426392 241.888153,681.196350 
	C238.901688,694.963867 230.193253,703.505127 216.635696,706.498779 
	C203.377701,709.426270 192.816254,704.235229 184.724365,693.730530 
	C181.240067,689.207275 178.719452,684.148132 177.678711,678.019043 
M194.184113,668.923218 
	C191.468185,676.027283 192.843765,682.415527 198.065765,686.949585 
	C201.938400,690.312073 206.763809,690.931763 211.681122,688.357788 
	C207.057770,680.730164 202.453613,673.134216 198.023575,665.825500 
	C195.704666,665.855530 195.211441,667.203247 194.184113,668.923218 
z"/>
<path fill="#000000" opacity="1.000000" stroke="none" 
	d="
M176.011353,311.830017 
	C185.748566,306.182251 195.277954,306.604431 205.052094,310.761566 
	C209.270691,312.555847 210.488449,314.518616 208.215363,319.021240 
	C203.045578,329.261688 198.402939,339.769104 193.596970,350.191498 
	C192.919571,351.660522 191.801971,353.019775 192.031311,355.142487 
	C196.077515,356.571075 199.473984,354.748657 202.405334,352.414185 
	C208.262604,347.749512 211.258591,341.243011 210.292542,333.982849 
	C209.638702,329.069031 211.172882,327.629150 215.356506,326.399872 
	C224.414032,323.738464 224.707138,323.755554 226.021500,332.897278 
	C228.804077,352.250885 209.269348,374.631042 190.353119,373.530243 
	C177.926102,372.807129 168.383286,366.925964 162.763870,355.787964 
	C156.918381,344.201843 158.822754,332.869446 165.537338,322.156006 
	C168.130020,318.019287 171.473404,314.560608 176.011353,311.830017 
M183.425369,344.857208 
	C186.403076,338.324219 189.380768,331.791260 192.417511,325.128723 
	C184.440399,323.392670 178.330460,326.900848 175.712936,334.080841 
	C173.198532,340.977997 175.017151,346.838440 180.832993,349.814911 
	C181.583862,348.381226 182.340622,346.936310 183.425369,344.857208 
z"/>
<path fill="#000000" opacity="1.000000" stroke="none" 
	d="
M296.817535,215.008621 
	C286.506470,224.618652 276.437561,233.992752 266.019318,243.692093 
	C270.647156,247.015900 274.886353,246.546555 278.914398,244.925720 
	C285.445587,242.297684 290.060242,237.547745 291.706451,230.593796 
	C292.602783,226.807480 294.409607,225.978073 298.065094,226.374741 
	C308.319458,227.487396 309.280121,228.929214 305.330719,238.702148 
	C298.974396,254.431122 279.868713,265.923340 264.988739,262.956024 
	C245.874390,259.144318 230.840485,236.278900 243.993668,214.566116 
	C255.901825,194.908615 281.822784,192.038895 296.067627,208.904373 
	C297.494354,210.593582 299.775085,212.308044 296.817535,215.008621 
M262.577698,231.006607 
	C267.727966,226.270935 273.337280,221.976852 277.595612,216.403854 
	C272.396515,211.184906 262.648499,214.162766 258.596466,219.254242 
	C254.445206,224.470398 254.025970,230.449005 257.903015,234.840393 
	C259.712982,234.254974 260.719177,232.639420 262.577698,231.006607 
z"/>
<path fill="#000000" opacity="1.000000" stroke="none" 
	d="
M658.163818,807.096924 
	C662.673767,804.926697 666.843872,802.921021 671.497314,800.682922 
	C667.865356,796.540955 663.779480,795.051270 659.163147,795.634155 
	C652.065735,796.530396 646.051514,799.680969 642.409546,806.077087 
	C640.779907,808.938965 639.058167,809.420471 636.401184,807.932007 
	C636.256287,807.850830 636.103027,807.782349 635.948547,807.720764 
	C625.810791,803.678467 625.393921,802.109375 632.199402,793.606018 
	C643.068359,780.025391 665.686584,775.228394 679.243286,783.628662 
	C690.412720,790.549683 696.390503,804.042908 694.133240,817.238831 
	C692.018555,829.601501 680.846741,840.477051 667.400146,843.263000 
	C652.267090,846.398315 638.770081,839.406372 632.163513,825.313843 
	C630.310120,821.360657 631.156433,819.344177 635.112183,817.659668 
	C642.770142,814.398682 650.262817,810.749695 658.163818,807.096924 
M677.635254,814.759460 
	C677.540405,813.013123 677.386475,810.946655 674.893799,812.081726 
	C667.141907,815.611267 659.159607,818.699707 651.395203,823.182861 
	C655.176758,828.383118 659.870728,829.545532 665.250061,828.668030 
	C671.689026,827.617737 676.125122,822.794739 677.635254,814.759460 
z"/>
<path fill="#000000" opacity="1.000000" stroke="none" 
	d="
M813.667969,648.844177 
	C813.137878,649.032532 812.978088,649.079285 812.819824,649.130920 
	C803.823975,652.067810 802.306458,651.019592 801.734558,641.473267 
	C800.513977,621.099976 818.057678,600.938538 836.883301,601.796448 
	C858.129333,602.764771 874.272217,622.573853 866.254272,644.771118 
	C859.211914,664.267456 840.955139,672.674622 823.138977,664.902283 
	C819.087891,663.135010 817.539734,661.331238 819.808655,656.679565 
	C824.985535,646.066345 829.553040,635.155457 834.335266,624.350952 
	C834.859253,623.167236 835.733215,622.047363 835.320679,620.170898 
	C831.389587,618.613586 828.011292,620.558960 825.203857,622.906738 
	C819.013855,628.083313 816.451782,635.053833 817.587280,642.972168 
	C818.080750,646.414246 817.210754,648.016235 813.667969,648.844177 
M842.659180,650.375122 
	C848.799255,648.217346 852.095276,643.772156 852.777344,637.418091 
	C853.320190,632.359924 852.164001,627.919434 847.501404,624.972900 
	C843.821167,629.774536 836.643921,646.455200 836.571228,650.274353 
	C838.302612,651.132935 840.116760,650.774536 842.659180,650.375122 
z"/>
<path fill="#000000" opacity="1.000000" stroke="none" 
	d="
M772.164795,257.830322 
	C769.137268,254.547180 766.346619,251.528809 763.288269,248.221008 
	C759.607666,252.861679 760.144836,257.309265 762.062500,261.705566 
	C764.733948,267.830048 769.345520,272.249420 775.761719,273.945984 
	C779.808044,275.015869 780.495056,276.957153 780.246155,280.649078 
	C779.602295,290.197693 777.905945,291.428650 768.923218,288.112152 
	C751.644836,281.732880 739.829163,259.884521 744.945984,243.775787 
	C748.903748,231.316025 761.095154,221.874008 773.520203,221.645493 
	C789.265625,221.355942 802.032715,229.899979 807.212646,244.193298 
	C811.728760,256.655121 808.154236,269.918976 798.095886,278.583069 
	C795.260254,281.025665 793.161560,281.715668 790.311768,278.270294 
	C784.583801,271.345001 778.398315,264.798096 772.164795,257.830322 
M774.961243,238.086929 
	C771.945007,238.739990 771.419861,240.047928 773.635986,242.411942 
	C777.037720,246.040665 780.256836,249.840729 783.665649,253.462418 
	C785.853333,255.786713 787.442078,258.821198 790.790527,260.181946 
	C794.505615,254.830429 794.383118,249.628555 790.945557,244.689743 
	C787.301025,239.453461 782.399170,236.415787 774.961243,238.086929 
z"/>
<path fill="#000000" opacity="1.000000" stroke="none" 
	d="
M850.021545,502.780090 
	C849.223633,507.789276 849.810669,512.339172 852.371033,516.136597 
	C854.584290,519.419434 853.807495,521.305237 851.217896,523.707642 
	C843.858093,530.535339 841.626892,530.298462 837.485229,521.091187 
	C829.852478,504.123291 835.121704,477.393616 856.540955,470.707703 
	C868.875549,466.857483 880.199341,469.417053 889.187866,478.678467 
	C898.886536,488.671539 900.692932,500.917389 896.397888,513.926453 
	C892.418701,525.978882 883.834900,532.785034 871.214966,534.431091 
	C870.884705,534.474182 870.555908,534.528442 870.225891,534.573486 
	C860.497314,535.903381 859.060364,534.454590 860.125122,524.617493 
	C861.345154,513.345215 860.096008,501.964294 861.543945,490.695374 
	C861.617981,490.119507 861.232239,489.484528 861.067139,488.900391 
	C854.625610,489.945953 851.287354,494.111176 850.021545,502.780090 
M872.944885,491.259003 
	C872.256470,499.590698 871.704895,507.920685 872.638733,516.342712 
	C879.277039,515.072937 883.074585,510.935547 883.728699,504.816223 
	C884.492676,497.669678 881.812195,491.929993 876.621277,489.716400 
	C875.283020,489.145721 873.757874,488.230560 872.944885,491.259003 
z"/>
<path fill="#000000" opacity="1.000000" stroke="none" 
	d="
M749.899902,710.135254 
	C754.674438,701.565735 760.951782,695.130432 769.801392,691.470764 
	C782.095642,686.386719 793.053162,689.120544 802.600891,697.715637 
	C812.237976,706.391174 815.577515,717.236084 811.789368,729.835205 
	C806.948669,745.935181 790.902771,757.528503 776.115723,756.704285 
	C757.655762,755.675171 737.990479,734.436401 749.899902,710.135254 
M792.987549,732.358765 
	C797.535156,724.437134 796.340149,716.998535 789.625793,711.433105 
	C782.982666,705.926514 774.794373,705.525635 769.084534,710.427429 
	C761.815613,716.667664 761.481323,725.735535 768.259705,732.800232 
	C775.942688,740.807617 784.852905,740.855530 792.987549,732.358765 
z"/>
<path fill="#000000" opacity="1.000000" stroke="none" 
	d="
M498.094269,142.278992 
	C494.816864,142.287918 492.021515,142.287918 489.192871,142.287918 
	C489.546326,147.873123 493.628845,151.848129 499.765930,152.694443 
	C506.165741,153.577011 512.468628,153.317627 517.785095,148.925797 
	C519.746338,147.305725 521.315369,147.456894 522.902405,149.336380 
	C523.544983,150.097427 524.289429,150.772736 524.990234,151.484421 
	C531.229675,157.821045 531.175354,158.722794 523.696472,163.401337 
	C508.386993,172.978455 476.571350,170.809326 469.618042,144.718384 
	C464.350739,124.953812 479.074921,105.236298 499.522949,104.689644 
	C518.781433,104.174782 531.361755,114.305351 534.145691,132.570328 
	C535.267883,139.932892 534.339355,141.062241 527.016602,141.305069 
	C517.536255,141.619431 508.056366,141.947754 498.094269,142.278992 
M488.370270,127.664627 
	C487.383759,130.710907 489.179688,130.968597 491.505524,130.919510 
	C498.302246,130.776031 505.100952,130.728745 511.898193,130.605057 
	C513.179810,130.581741 514.622192,130.828140 515.639893,128.879410 
	C514.232666,123.629723 510.346924,120.654060 505.002106,119.501106 
	C498.264923,118.047798 492.628174,120.759697 488.370270,127.664627 
z"/>
<path fill="#000000" opacity="1.000000" stroke="none" 
	d="
M356.430298,774.027222 
	C373.571533,777.979065 384.112762,788.351562 386.517670,803.297241 
	C389.577423,822.312561 372.402557,840.891113 353.192230,839.060730 
	C341.769989,837.972412 332.018524,833.244263 325.078217,823.828674 
	C317.591431,813.671814 316.545898,802.695251 322.199951,791.380188 
	C327.886383,780.000366 337.021332,773.695984 350.020020,773.652344 
	C352.011932,773.645691 354.004486,773.836792 356.430298,774.027222 
M365.737701,814.139526 
	C367.876190,810.098755 369.511780,805.981689 368.152252,801.265198 
	C366.314941,794.891235 360.951630,790.537659 354.343231,790.143372 
	C347.155090,789.714539 342.134796,793.088318 338.968658,800.475708 
	C335.953064,807.511780 336.971466,813.848755 341.845825,818.379822 
	C349.248901,825.261230 358.621490,823.822754 365.737701,814.139526 
z"/>
<path fill="#000000" opacity="1.000000" stroke="none" 
	d="
M324.223206,175.482727 
	C323.062805,157.648697 337.189789,141.765640 356.211304,138.995392 
	C372.520630,136.620148 387.817596,147.418259 391.600922,164.413559 
	C394.216736,176.164062 390.373779,186.056671 381.632996,194.152634 
	C367.043304,207.666122 345.478577,207.908844 333.070343,194.604675 
	C328.168121,189.348526 325.303528,183.040329 324.223206,175.482727 
M369.377319,183.904694 
	C373.181091,180.294983 374.382965,175.835159 373.688110,170.748962 
	C372.517578,162.180862 365.614502,155.389404 357.999298,155.322403 
	C350.469604,155.256149 343.577911,160.742050 342.734833,168.347549 
	C341.948273,175.443100 344.925476,181.497726 350.767853,185.512756 
	C356.822327,189.673508 363.034729,188.558212 369.377319,183.904694 
z"/>
<path fill="#000000" opacity="1.000000" stroke="none" 
	d="
M210.168427,610.491211 
	C214.442123,611.291260 214.022507,615.003662 214.862610,617.574829 
	C218.694504,629.302551 220.126053,626.832458 208.423569,631.084290 
	C193.882462,636.367554 179.172668,641.186584 164.631317,646.469177 
	C160.693466,647.899719 158.710510,647.174316 157.809418,643.080078 
	C157.383545,641.145203 156.548141,639.296936 155.857040,637.424622 
	C154.619461,634.071838 152.915985,630.632568 158.628998,628.928284 
	C152.055344,623.695190 147.651245,617.811401 145.646240,610.313232 
	C142.333466,597.924377 146.800156,587.161621 158.360291,581.524780 
	C169.905106,575.895569 182.450928,572.840454 194.486328,568.458191 
	C196.528366,567.714661 197.656799,568.393494 198.314682,570.291931 
	C199.938507,574.977661 201.560471,579.664062 203.220169,584.456970 
	C198.843216,587.482483 194.010696,588.328796 189.584015,590.082764 
	C183.865540,592.348633 177.946655,594.104126 172.196701,596.296143 
	C163.870636,599.470276 161.026642,604.175659 163.090179,610.889038 
	C165.567810,618.949585 171.760712,622.888367 180.018707,620.580383 
	C188.813156,618.122437 197.350021,614.743591 206.002106,611.774841 
	C207.260406,611.343079 208.534088,610.956177 210.168427,610.491211 
z"/>
<path fill="#000000" opacity="1.000000" stroke="none" 
	d="
M331.145020,765.009155 
	C319.933044,778.889832 308.856598,792.413330 298.014709,806.122314 
	C295.675873,809.079651 293.911774,809.445740 291.246582,806.841064 
	C289.587341,805.219604 287.691101,803.819946 285.800751,802.460449 
	C282.670654,800.209351 280.227875,797.885437 284.436401,794.001892 
	C270.773529,792.849731 261.175690,786.643433 256.100128,774.408508 
	C252.499420,765.728821 255.640060,757.919373 260.804565,751.042358 
	C267.598450,741.995667 274.999878,733.407166 282.042358,724.543945 
	C283.939453,722.156433 285.498962,722.257812 287.864288,723.999695 
	C299.472870,732.548218 299.527802,732.500488 290.769287,743.587341 
	C286.538269,748.943237 282.119354,754.155701 278.020996,759.610107 
	C272.936493,766.377075 273.164062,771.888916 278.367249,776.456787 
	C284.405121,781.757385 292.195587,781.904053 297.594513,776.000122 
	C303.989136,769.007446 309.974518,761.606812 315.706451,754.056030 
	C318.570862,750.282654 320.803558,750.005615 324.063904,753.234009 
	C326.184937,755.334473 328.572784,757.194763 330.989838,758.958923 
	C333.552063,760.829041 333.374084,762.660278 331.145020,765.009155 
z"/>
<path fill="#000000" opacity="1.000000" stroke="none" 
	d="
M210.591339,281.338959 
	C218.224762,283.164764 225.458359,284.880798 234.136276,286.939423 
	C229.329712,278.832062 225.244965,271.897675 221.113953,264.990967 
	C218.637344,260.850281 216.075623,256.760559 213.579086,252.631638 
	C212.737717,251.240097 211.366791,249.803986 212.617096,248.096008 
	C215.627823,243.983093 218.241547,239.535233 221.799484,236.078461 
	C223.906845,236.615143 224.492096,238.074234 225.240372,239.318054 
	C235.104309,255.713882 244.906952,272.146790 254.833557,288.504517 
	C256.511810,291.270081 256.565887,293.422302 254.622208,296.180328 
	C246.311584,307.972992 246.392548,308.037628 232.287216,304.722687 
	C217.405563,301.225250 202.515488,297.761871 187.661194,294.151550 
	C185.656540,293.664307 183.297348,293.794067 181.180435,291.320404 
	C184.352310,286.967560 187.542114,282.418060 190.934158,278.024750 
	C192.185745,276.403717 194.103943,277.441132 195.637238,277.771729 
	C200.510605,278.822449 205.343170,280.062347 210.591339,281.338959 
z"/>
<path fill="#000000" opacity="1.000000" stroke="none" 
	d="
M866.775024,565.015381 
	C860.821472,565.998230 855.294678,566.884277 849.525513,567.809204 
	C850.785156,570.540588 853.039734,571.449585 854.864258,572.774353 
	C863.211670,578.835449 871.518555,584.960754 880.039246,590.770691 
	C883.331421,593.015442 884.405029,595.566650 883.126465,599.171021 
	C881.820007,602.854004 881.986206,607.027466 879.608154,610.399170 
	C876.624268,609.868835 874.808960,607.769043 872.689453,606.245361 
	C858.232849,595.852783 843.871216,585.327515 829.361084,575.010864 
	C826.334534,572.858948 826.091797,570.708008 826.385559,567.078857 
	C827.256409,556.320068 832.381104,552.126038 843.212280,551.011230 
	C859.024841,549.383728 874.620789,545.660828 890.316406,542.872375 
	C891.749939,542.617676 893.236572,542.661377 895.361694,542.523376 
	C895.028625,548.678467 893.502625,554.197266 891.677246,559.624451 
	C891.057495,561.466919 888.991760,561.395447 887.389893,561.662964 
	C880.666748,562.785645 873.932190,563.839539 866.775024,565.015381 
z"/>
<path fill="#000000" opacity="1.000000" stroke="none" 
	d="
M244.351395,742.669800 
	C244.221970,743.413818 244.101990,743.965271 244.296814,744.362244 
	C245.428101,746.667236 249.304535,748.025635 248.128952,750.839844 
	C246.585831,754.533813 242.480392,756.298401 239.538513,758.955139 
	C238.464249,759.925171 237.346191,758.995972 236.524246,758.107971 
	C235.179855,756.655518 233.877747,755.164001 232.436752,753.553650 
	C228.843948,755.071472 226.610184,758.099609 223.797501,760.311462 
	C221.575211,762.058960 220.111420,761.961487 218.383987,759.878357 
	C216.048523,757.061951 213.654022,754.287720 211.159180,751.612549 
	C209.084045,749.387512 209.502411,747.727295 211.622192,745.742065 
	C214.132599,743.391113 217.463806,741.854553 219.271881,738.291138 
	C216.947418,735.534851 214.649643,732.712280 212.240768,729.987915 
	C210.601837,728.134460 210.748474,726.726990 212.464981,724.869934 
	C219.700119,717.042419 220.560013,716.994263 227.511261,724.957886 
	C228.486771,726.075439 229.497040,727.162720 230.891907,728.707886 
	C237.993393,723.098999 245.115250,717.723877 250.987732,711.009155 
	C253.696884,707.911499 252.397751,703.600830 247.890259,700.984009 
	C244.258987,698.875977 244.523819,697.061218 246.300308,693.891846 
	C251.133011,685.270081 253.025909,684.861877 260.477051,691.674561 
	C263.691010,694.613037 266.476105,697.897156 268.301025,701.913086 
	C272.154053,710.391846 270.980011,718.138245 264.157562,724.732300 
	C257.827026,730.851013 251.073517,736.532043 244.351395,742.669800 
z"/>
<path fill="#000000" opacity="1.000000" stroke="none" 
	d="
M824.981812,700.084839 
	C811.191223,691.292297 797.764648,682.600281 784.190247,674.145630 
	C781.011169,672.165527 780.388062,670.373352 782.749207,667.461121 
	C783.897705,666.044617 784.832703,664.446045 785.787598,662.882996 
	C791.039001,654.287659 790.057373,655.648560 797.197510,660.120728 
	C817.245178,672.677185 837.075562,685.581238 857.150818,698.092773 
	C861.407532,700.745605 861.932739,702.797974 859.073975,707.013428 
	C852.163635,717.203125 852.369934,717.356689 841.761353,710.697754 
	C836.258362,707.243530 830.780884,703.748535 824.981812,700.084839 
z"/>
<path fill="#000000" opacity="1.000000" stroke="none" 
	d="
M324.487091,199.542511 
	C328.175323,204.911606 331.597778,210.028198 335.187164,215.024902 
	C336.966614,217.501999 336.998138,219.125671 334.281006,221.142044 
	C322.648132,229.774673 322.687286,229.874527 314.402283,217.833817 
	C302.052856,199.886200 289.837646,181.844986 277.333130,164.006363 
	C274.670441,160.207809 274.493988,158.132034 278.726898,155.374130 
	C289.467377,148.376328 289.331116,148.178177 296.665314,158.897247 
	C305.868805,172.348297 315.081451,185.793076 324.487091,199.542511 
z"/>
<path fill="#000000" opacity="1.000000" stroke="none" 
	d="
M379.802246,853.168579 
	C378.369781,847.525757 381.483490,843.077454 382.950073,838.275818 
	C383.569702,836.246948 385.478760,837.380066 386.843506,837.704834 
	C398.334412,840.438843 404.164490,837.192383 407.647308,826.010681 
	C410.021240,818.389099 412.494049,810.791687 414.587524,803.092346 
	C415.607544,799.340942 417.483307,798.833740 420.779907,799.987366 
	C436.517517,805.494873 434.539307,801.767639 430.096405,817.012695 
	C425.957306,831.215332 421.346466,845.279968 417.080231,859.446594 
	C416.090179,862.734070 414.529846,863.790466 411.272858,862.407471 
	C409.140289,861.501892 406.885590,860.828796 404.630005,860.279968 
	C400.428864,859.257568 396.963593,857.926636 400.896881,852.055847 
	C393.430054,854.911133 386.866577,856.069031 379.802246,853.168579 
z"/>
<path fill="#000000" opacity="1.000000" stroke="none" 
	d="
M604.701294,833.399780 
	C602.286499,824.140991 600.030090,815.281921 597.465637,806.512939 
	C596.542053,803.354736 597.360657,801.854553 600.445740,801.107849 
	C603.836304,800.287170 607.205872,799.349609 610.528198,798.286560 
	C613.418823,797.361694 614.822205,798.363403 615.601440,801.207031 
	C620.387390,818.672485 625.259094,836.114502 630.117493,853.560120 
	C630.841858,856.161133 629.961792,857.691040 627.311279,858.334412 
	C624.890503,858.921936 622.492859,859.618591 620.112854,860.356628 
	C616.445984,861.493896 612.750854,862.853638 611.760315,856.391296 
	C607.690308,861.775818 603.096130,865.140625 597.610168,867.362915 
	C594.785156,868.507202 593.144714,867.872864 592.469116,864.878967 
	C592.249451,863.905640 591.923218,862.952820 591.756531,861.971802 
	C591.256653,859.028870 589.237305,856.213440 589.926697,853.275024 
	C590.780457,849.635925 594.894958,850.721985 597.390747,849.334106 
	C603.680054,845.836975 605.654480,840.595154 604.701294,833.399780 
z"/>
<path fill="#000000" opacity="1.000000" stroke="none" 
	d="
M558.241699,168.639954 
	C555.442810,170.436584 543.053284,169.610565 541.028076,167.901642 
	C539.481445,166.596497 539.888489,164.906540 540.105957,163.281921 
	C542.328308,146.675125 544.551331,130.068375 546.815125,113.467194 
	C547.753479,106.585968 547.797119,106.601784 554.904541,107.543243 
	C556.056274,107.695808 557.234253,107.653824 558.384460,107.814163 
	C562.158447,108.340302 566.219177,108.549423 565.673645,114.705627 
	C571.382202,111.968109 576.638550,110.178513 582.459961,110.601143 
	C585.557434,110.826019 586.629456,112.088226 586.177185,114.988533 
	C586.074829,115.645226 586.054016,116.323814 585.873718,116.957619 
	C584.966370,120.147118 586.176331,124.128532 583.843201,126.548019 
	C581.524658,128.952408 577.858154,126.871452 574.787292,127.232147 
	C568.155945,128.011017 563.537781,132.459747 562.341858,140.149017 
	C560.887573,149.499741 559.671814,158.887573 558.241699,168.639954 
z"/>
<path fill="#000000" opacity="1.000000" stroke="none" 
	d="
M584.645996,158.752289 
	C588.862915,154.824677 593.314758,153.955490 598.210754,156.256943 
	C602.139893,158.103897 604.340271,161.296539 604.548523,165.642929 
	C604.792908,170.745514 602.684021,174.679230 598.080994,177.035309 
	C593.913025,179.168686 588.655701,178.232269 585.198364,174.829681 
	C581.472351,171.162659 580.746704,166.840530 582.697449,162.056839 
	C583.129822,160.996475 583.809570,160.036987 584.645996,158.752289 
z"/>
<path fill="#000000" opacity="1.000000" stroke="none" 
	d="
M576.102417,815.328125 
	C577.982117,821.922668 576.669495,826.261292 572.128906,829.317444 
	C567.967651,832.118469 562.415100,832.010925 558.549438,829.054260 
	C554.801941,826.188110 553.140503,820.611694 554.762817,815.985413 
	C556.213074,811.849609 559.173645,809.332642 563.507751,808.745056 
	C568.992004,808.001465 573.355347,809.781128 576.102417,815.328125 
z"/>
</svg>